<mxfile host="app.diagrams.net" modified="2020-12-04T17:25:56.346Z" agent="5.0 (Windows NT 10.0; Win64; x64) AppleWebKit/537.36 (KHTML, like Gecko) Chrome/86.0.4240.198 Safari/537.36" etag="gBnZzj42mWsaM8d-7r4j" version="13.10.9" type="github" pages="2">
  <diagram id="JQWyWy0vTpY4Uh1TzkyL" name="トップ">
    <mxGraphModel dx="1065" dy="736" grid="1" gridSize="10" guides="1" tooltips="1" connect="1" arrows="1" fold="1" page="1" pageScale="1" pageWidth="827" pageHeight="1169" math="0" shadow="0">
      <root>
        <mxCell id="tlsIqxzMy-CoewqOcP2F-0" />
        <mxCell id="tlsIqxzMy-CoewqOcP2F-1" parent="tlsIqxzMy-CoewqOcP2F-0" />
        <UserObject label="" link="https://viewer.diagrams.net/?page-id=JQWyWy0vTpY4Uh1TzkyL&amp;highlight=0000ff&amp;edit=_blank&amp;layers=1&amp;nav=1&amp;page-id=JQWyWy0vTpY4Uh1TzkyL#Hhironobu0824%2Faruaruapp%2Fmaster%2F%E5%90%8D%E7%A7%B0%E6%9C%AA%E8%A8%AD%E5%AE%9A%E3%83%95%E3%82%A1%E3%82%A4%E3%83%AB.drawio" id="Q3BU7ab5tg5REgMuj1rq-0">
          <mxCell style="strokeWidth=1;shadow=0;dashed=0;align=center;html=1;shape=mxgraph.mockup.containers.browserWindow;rSize=0;strokeColor=#666666;strokeColor2=#008cff;strokeColor3=#c4c4c4;mainText=,;recursiveResize=0;labelBorderColor=#000000;fontSize=13;" vertex="1" parent="tlsIqxzMy-CoewqOcP2F-1">
            <mxGeometry x="50" y="40" width="810" height="970" as="geometry" />
          </mxCell>
        </UserObject>
        <mxCell id="Q3BU7ab5tg5REgMuj1rq-1" value="みんなのあるある" style="strokeWidth=1;shadow=0;dashed=0;align=center;html=1;shape=mxgraph.mockup.containers.anchor;fontSize=13;fontColor=#666666;align=left;" vertex="1" parent="Q3BU7ab5tg5REgMuj1rq-0">
          <mxGeometry x="60" y="12" width="110" height="26" as="geometry" />
        </mxCell>
        <mxCell id="Q3BU7ab5tg5REgMuj1rq-2" value="https://www.minnanoaruaru.home" style="strokeWidth=1;shadow=0;dashed=0;align=center;html=1;shape=mxgraph.mockup.containers.anchor;rSize=0;fontSize=17;fontColor=#666666;align=left;" vertex="1" parent="Q3BU7ab5tg5REgMuj1rq-0">
          <mxGeometry x="130" y="60" width="250" height="26" as="geometry" />
        </mxCell>
        <mxCell id="Q3BU7ab5tg5REgMuj1rq-3" value="" style="verticalLabelPosition=bottom;shadow=0;dashed=0;align=center;html=1;verticalAlign=top;strokeWidth=1;shape=mxgraph.mockup.graphics.simpleIcon;strokeColor=#999999;fontSize=13;" vertex="1" parent="Q3BU7ab5tg5REgMuj1rq-0">
          <mxGeometry y="110" width="240" height="60" as="geometry" />
        </mxCell>
        <mxCell id="Q3BU7ab5tg5REgMuj1rq-4" value="f" style="verticalLabelPosition=bottom;shadow=0;dashed=0;align=center;html=1;verticalAlign=top;strokeWidth=1;shape=mxgraph.mockup.graphics.simpleIcon;strokeColor=#999999;fontSize=13;" vertex="1" parent="Q3BU7ab5tg5REgMuj1rq-0">
          <mxGeometry x="160" y="170" width="650" height="800" as="geometry" />
        </mxCell>
        <mxCell id="Q3BU7ab5tg5REgMuj1rq-5" value="みんなのあるある" style="text;html=1;strokeColor=none;fillColor=none;align=center;verticalAlign=middle;whiteSpace=wrap;rounded=0;fontSize=18;fontStyle=1" vertex="1" parent="Q3BU7ab5tg5REgMuj1rq-0">
          <mxGeometry y="110" width="230" height="60" as="geometry" />
        </mxCell>
        <mxCell id="Q3BU7ab5tg5REgMuj1rq-6" value="Search" style="strokeWidth=1;shadow=0;dashed=0;align=center;html=1;shape=mxgraph.mockup.forms.searchBox;strokeColor=#999999;mainText=;strokeColor2=#008cff;fontColor=#666666;fontSize=17;align=left;spacingLeft=3;" vertex="1" parent="Q3BU7ab5tg5REgMuj1rq-0">
          <mxGeometry x="298" y="130" width="170" height="20" as="geometry" />
        </mxCell>
        <mxCell id="Q3BU7ab5tg5REgMuj1rq-7" value="ログイン" style="text;html=1;strokeColor=none;fillColor=none;align=center;verticalAlign=middle;whiteSpace=wrap;rounded=0;fontSize=18;" vertex="1" parent="Q3BU7ab5tg5REgMuj1rq-0">
          <mxGeometry x="566" y="130" width="84" height="20" as="geometry" />
        </mxCell>
        <mxCell id="Q3BU7ab5tg5REgMuj1rq-8" value="新規登録" style="text;html=1;strokeColor=none;fillColor=none;align=center;verticalAlign=middle;whiteSpace=wrap;rounded=0;fontSize=18;" vertex="1" parent="Q3BU7ab5tg5REgMuj1rq-0">
          <mxGeometry x="699" y="130" width="74" height="20" as="geometry" />
        </mxCell>
        <mxCell id="Q3BU7ab5tg5REgMuj1rq-9" value="カテゴリ" style="text;html=1;align=center;verticalAlign=middle;resizable=0;points=[];autosize=1;fontSize=18;" vertex="1" parent="Q3BU7ab5tg5REgMuj1rq-0">
          <mxGeometry x="16" y="210" width="90" height="30" as="geometry" />
        </mxCell>
        <mxCell id="Q3BU7ab5tg5REgMuj1rq-10" value="学校" style="text;html=1;strokeColor=none;fillColor=none;align=center;verticalAlign=middle;whiteSpace=wrap;rounded=0;fontSize=18;" vertex="1" parent="Q3BU7ab5tg5REgMuj1rq-0">
          <mxGeometry x="41" y="280" width="40" height="20" as="geometry" />
        </mxCell>
        <mxCell id="Q3BU7ab5tg5REgMuj1rq-11" value="季節" style="text;html=1;strokeColor=none;fillColor=none;align=center;verticalAlign=middle;whiteSpace=wrap;rounded=0;fontSize=18;" vertex="1" parent="Q3BU7ab5tg5REgMuj1rq-0">
          <mxGeometry x="41" y="330" width="40" height="20" as="geometry" />
        </mxCell>
        <mxCell id="Q3BU7ab5tg5REgMuj1rq-12" value="家族" style="text;html=1;strokeColor=none;fillColor=none;align=center;verticalAlign=middle;whiteSpace=wrap;rounded=0;fontSize=18;" vertex="1" parent="Q3BU7ab5tg5REgMuj1rq-0">
          <mxGeometry x="41" y="380" width="40" height="20" as="geometry" />
        </mxCell>
        <mxCell id="Q3BU7ab5tg5REgMuj1rq-13" value="生活" style="text;html=1;strokeColor=none;fillColor=none;align=center;verticalAlign=middle;whiteSpace=wrap;rounded=0;fontSize=18;" vertex="1" parent="Q3BU7ab5tg5REgMuj1rq-0">
          <mxGeometry x="41" y="430" width="40" height="20" as="geometry" />
        </mxCell>
        <mxCell id="Q3BU7ab5tg5REgMuj1rq-14" value="食事" style="text;html=1;strokeColor=none;fillColor=none;align=center;verticalAlign=middle;whiteSpace=wrap;rounded=0;fontSize=18;" vertex="1" parent="Q3BU7ab5tg5REgMuj1rq-0">
          <mxGeometry x="41" y="480" width="40" height="20" as="geometry" />
        </mxCell>
        <mxCell id="Q3BU7ab5tg5REgMuj1rq-15" value="その他" style="text;html=1;strokeColor=none;fillColor=none;align=center;verticalAlign=middle;whiteSpace=wrap;rounded=0;fontSize=18;" vertex="1" parent="Q3BU7ab5tg5REgMuj1rq-0">
          <mxGeometry x="41" y="530" width="59" height="30" as="geometry" />
        </mxCell>
        <mxCell id="Q3BU7ab5tg5REgMuj1rq-16" value="ユーザー&lt;br&gt;ランキング" style="text;html=1;strokeColor=none;fillColor=none;align=center;verticalAlign=middle;whiteSpace=wrap;rounded=0;fontSize=18;" vertex="1" parent="Q3BU7ab5tg5REgMuj1rq-0">
          <mxGeometry x="20" y="620" width="120" height="20" as="geometry" />
        </mxCell>
        <mxCell id="Q3BU7ab5tg5REgMuj1rq-17" value="1位　俺" style="text;html=1;strokeColor=none;fillColor=none;align=center;verticalAlign=middle;whiteSpace=wrap;rounded=0;fontSize=18;" vertex="1" parent="Q3BU7ab5tg5REgMuj1rq-0">
          <mxGeometry x="41" y="710" width="79" height="20" as="geometry" />
        </mxCell>
        <mxCell id="Q3BU7ab5tg5REgMuj1rq-18" value="2位　私" style="text;html=1;strokeColor=none;fillColor=none;align=center;verticalAlign=middle;whiteSpace=wrap;rounded=0;fontSize=18;" vertex="1" parent="Q3BU7ab5tg5REgMuj1rq-0">
          <mxGeometry x="45.25" y="770" width="69.5" height="20" as="geometry" />
        </mxCell>
        <mxCell id="Q3BU7ab5tg5REgMuj1rq-19" value="3位　彼" style="text;html=1;strokeColor=none;fillColor=none;align=center;verticalAlign=middle;whiteSpace=wrap;rounded=0;fontSize=18;" vertex="1" parent="Q3BU7ab5tg5REgMuj1rq-0">
          <mxGeometry x="45.75" y="830" width="69.5" height="20" as="geometry" />
        </mxCell>
        <mxCell id="Q3BU7ab5tg5REgMuj1rq-20" value="" style="verticalLabelPosition=bottom;verticalAlign=top;html=1;shape=mxgraph.basic.patternFillRect;fillStyle=diag;step=5;fillStrokeWidth=0.2;fillStrokeColor=#dddddd;fontSize=18;align=left;" vertex="1" parent="Q3BU7ab5tg5REgMuj1rq-0">
          <mxGeometry x="196" y="280" width="504" height="160" as="geometry" />
        </mxCell>
        <mxCell id="Q3BU7ab5tg5REgMuj1rq-21" value="" style="verticalLabelPosition=bottom;verticalAlign=top;html=1;shape=mxgraph.basic.patternFillRect;fillStyle=diag;step=5;fillStrokeWidth=0.2;fillStrokeColor=#dddddd;fontSize=18;align=left;" vertex="1" parent="Q3BU7ab5tg5REgMuj1rq-0">
          <mxGeometry x="196" y="470" width="504" height="170" as="geometry" />
        </mxCell>
        <mxCell id="Q3BU7ab5tg5REgMuj1rq-22" value="" style="verticalLabelPosition=bottom;verticalAlign=top;html=1;shape=mxgraph.basic.patternFillRect;fillStyle=diag;step=5;fillStrokeWidth=0.2;fillStrokeColor=#dddddd;fontSize=18;align=left;" vertex="1" parent="Q3BU7ab5tg5REgMuj1rq-0">
          <mxGeometry x="196" y="670" width="504" height="160" as="geometry" />
        </mxCell>
        <mxCell id="Q3BU7ab5tg5REgMuj1rq-23" value="&lt;font style=&quot;font-size: 21px&quot;&gt;人気テーマ&lt;/font&gt;" style="text;html=1;strokeColor=none;fillColor=none;align=left;verticalAlign=middle;whiteSpace=wrap;rounded=0;fontSize=18;fontStyle=1" vertex="1" parent="Q3BU7ab5tg5REgMuj1rq-0">
          <mxGeometry x="196" y="205" width="244" height="45" as="geometry" />
        </mxCell>
        <mxCell id="Q3BU7ab5tg5REgMuj1rq-24" value="&lt;font style=&quot;font-size: 19px&quot;&gt;&lt;a href=&quot;ページ2&quot;&gt;夏あるある&lt;/a&gt;&lt;/font&gt;" style="text;html=1;strokeColor=none;fillColor=none;align=left;verticalAlign=middle;whiteSpace=wrap;rounded=0;fontSize=18;" vertex="1" parent="Q3BU7ab5tg5REgMuj1rq-0">
          <mxGeometry x="210" y="300" width="120" height="40" as="geometry" />
        </mxCell>
        <mxCell id="Q3BU7ab5tg5REgMuj1rq-25" value="コンビニめちゃ涼しい" style="text;html=1;strokeColor=none;fillColor=none;align=left;verticalAlign=middle;whiteSpace=wrap;rounded=0;fontSize=18;" vertex="1" parent="Q3BU7ab5tg5REgMuj1rq-0">
          <mxGeometry x="246" y="350" width="204" height="20" as="geometry" />
        </mxCell>
        <mxCell id="Q3BU7ab5tg5REgMuj1rq-26" value="日焼け完全防備のおばさんがいる" style="text;html=1;strokeColor=none;fillColor=none;align=left;verticalAlign=middle;whiteSpace=wrap;rounded=0;fontSize=18;" vertex="1" parent="Q3BU7ab5tg5REgMuj1rq-0">
          <mxGeometry x="246" y="380" width="274" height="20" as="geometry" />
        </mxCell>
        <mxCell id="Q3BU7ab5tg5REgMuj1rq-27" value="プロ野球あるある" style="text;html=1;strokeColor=none;fillColor=none;align=center;verticalAlign=middle;whiteSpace=wrap;rounded=0;fontSize=18;" vertex="1" parent="Q3BU7ab5tg5REgMuj1rq-0">
          <mxGeometry x="210" y="500" width="150" height="20" as="geometry" />
        </mxCell>
        <mxCell id="Q3BU7ab5tg5REgMuj1rq-28" value="ヤクルトが弱い" style="text;html=1;strokeColor=none;fillColor=none;align=center;verticalAlign=middle;whiteSpace=wrap;rounded=0;fontSize=18;" vertex="1" parent="Q3BU7ab5tg5REgMuj1rq-0">
          <mxGeometry x="246" y="540" width="140" height="20" as="geometry" />
        </mxCell>
        <mxCell id="Q3BU7ab5tg5REgMuj1rq-29" value="ソフトバンクが強すぎる" style="text;html=1;strokeColor=none;fillColor=none;align=center;verticalAlign=middle;whiteSpace=wrap;rounded=0;fontSize=18;" vertex="1" parent="Q3BU7ab5tg5REgMuj1rq-0">
          <mxGeometry x="246" y="580" width="210" height="20" as="geometry" />
        </mxCell>
        <mxCell id="Q3BU7ab5tg5REgMuj1rq-30" value="回転寿司あるある" style="text;html=1;strokeColor=none;fillColor=none;align=center;verticalAlign=middle;whiteSpace=wrap;rounded=0;fontSize=18;" vertex="1" parent="Q3BU7ab5tg5REgMuj1rq-0">
          <mxGeometry x="220" y="700" width="150" height="20" as="geometry" />
        </mxCell>
        <mxCell id="Q3BU7ab5tg5REgMuj1rq-31" value="あんまり流れてない" style="text;html=1;strokeColor=none;fillColor=none;align=center;verticalAlign=middle;whiteSpace=wrap;rounded=0;fontSize=18;" vertex="1" parent="Q3BU7ab5tg5REgMuj1rq-0">
          <mxGeometry x="256" y="740" width="164" height="20" as="geometry" />
        </mxCell>
        <mxCell id="Q3BU7ab5tg5REgMuj1rq-32" value="誰も食べなさそうな高いデザートがある" style="text;html=1;strokeColor=none;fillColor=none;align=left;verticalAlign=middle;whiteSpace=wrap;rounded=0;fontSize=18;" vertex="1" parent="Q3BU7ab5tg5REgMuj1rq-0">
          <mxGeometry x="256" y="780" width="344" height="20" as="geometry" />
        </mxCell>
      </root>
    </mxGraphModel>
  </diagram>
  <diagram id="bf_GO7GSEGs-2usiYzlT" name="個別">
    <mxGraphModel dx="1065" dy="1905" grid="1" gridSize="10" guides="1" tooltips="1" connect="1" arrows="1" fold="1" page="1" pageScale="1" pageWidth="827" pageHeight="1169" math="0" shadow="0">
      <root>
        <mxCell id="FQ8Olp8cKsS3CSEHPEwH-0" />
        <mxCell id="FQ8Olp8cKsS3CSEHPEwH-1" parent="FQ8Olp8cKsS3CSEHPEwH-0" />
        <UserObject label="" link="https://viewer.diagrams.net/?page-id=JQWyWy0vTpY4Uh1TzkyL&amp;highlight=0000ff&amp;edit=_blank&amp;layers=1&amp;nav=1&amp;page-id=JQWyWy0vTpY4Uh1TzkyL#Hhironobu0824%2Faruaruapp%2Fmaster%2F%E5%90%8D%E7%A7%B0%E6%9C%AA%E8%A8%AD%E5%AE%9A%E3%83%95%E3%82%A1%E3%82%A4%E3%83%AB.drawio" id="ctEzAyNJ82Mr7fy5SOiO-1">
          <mxCell style="strokeWidth=1;shadow=0;dashed=0;align=center;html=1;shape=mxgraph.mockup.containers.browserWindow;rSize=0;strokeColor=#666666;strokeColor2=#008cff;strokeColor3=#c4c4c4;mainText=,;recursiveResize=0;labelBorderColor=#000000;fontSize=13;" vertex="1" parent="FQ8Olp8cKsS3CSEHPEwH-1">
            <mxGeometry y="-240" width="810" height="970" as="geometry" />
          </mxCell>
        </UserObject>
        <mxCell id="ctEzAyNJ82Mr7fy5SOiO-7" value="f" style="verticalLabelPosition=bottom;shadow=0;dashed=0;align=center;html=1;verticalAlign=top;strokeWidth=1;shape=mxgraph.mockup.graphics.simpleIcon;strokeColor=#999999;fontSize=13;" vertex="1" parent="ctEzAyNJ82Mr7fy5SOiO-1">
          <mxGeometry x="160" y="170" width="650" height="800" as="geometry" />
        </mxCell>
        <mxCell id="ctEzAyNJ82Mr7fy5SOiO-32" value="" style="verticalLabelPosition=bottom;verticalAlign=top;html=1;shape=mxgraph.basic.patternFillRect;fillStyle=diag;step=5;fillStrokeWidth=0.2;fillStrokeColor=#dddddd;fontSize=18;align=left;" vertex="1" parent="ctEzAyNJ82Mr7fy5SOiO-1">
          <mxGeometry x="160" y="170" width="650" height="800" as="geometry" />
        </mxCell>
        <mxCell id="ctEzAyNJ82Mr7fy5SOiO-2" value="みんなのあるある" style="strokeWidth=1;shadow=0;dashed=0;align=center;html=1;shape=mxgraph.mockup.containers.anchor;fontSize=13;fontColor=#666666;align=left;" vertex="1" parent="ctEzAyNJ82Mr7fy5SOiO-1">
          <mxGeometry x="60" y="12" width="110" height="26" as="geometry" />
        </mxCell>
        <mxCell id="ctEzAyNJ82Mr7fy5SOiO-3" value="https://www.minnanoaruaru.home" style="strokeWidth=1;shadow=0;dashed=0;align=center;html=1;shape=mxgraph.mockup.containers.anchor;rSize=0;fontSize=17;fontColor=#666666;align=left;" vertex="1" parent="ctEzAyNJ82Mr7fy5SOiO-1">
          <mxGeometry x="130" y="60" width="250" height="26" as="geometry" />
        </mxCell>
        <mxCell id="ctEzAyNJ82Mr7fy5SOiO-4" value="" style="verticalLabelPosition=bottom;shadow=0;dashed=0;align=center;html=1;verticalAlign=top;strokeWidth=1;shape=mxgraph.mockup.graphics.simpleIcon;strokeColor=#999999;fontSize=13;" vertex="1" parent="ctEzAyNJ82Mr7fy5SOiO-1">
          <mxGeometry y="110" width="240" height="60" as="geometry" />
        </mxCell>
        <mxCell id="ctEzAyNJ82Mr7fy5SOiO-9" value="みんなのあるある" style="text;html=1;strokeColor=none;fillColor=none;align=center;verticalAlign=middle;whiteSpace=wrap;rounded=0;fontSize=18;fontStyle=1" vertex="1" parent="ctEzAyNJ82Mr7fy5SOiO-1">
          <mxGeometry y="110" width="230" height="60" as="geometry" />
        </mxCell>
        <mxCell id="ctEzAyNJ82Mr7fy5SOiO-5" value="Search" style="strokeWidth=1;shadow=0;dashed=0;align=center;html=1;shape=mxgraph.mockup.forms.searchBox;strokeColor=#999999;mainText=;strokeColor2=#008cff;fontColor=#666666;fontSize=17;align=left;spacingLeft=3;" vertex="1" parent="ctEzAyNJ82Mr7fy5SOiO-1">
          <mxGeometry x="298" y="130" width="170" height="20" as="geometry" />
        </mxCell>
        <mxCell id="ctEzAyNJ82Mr7fy5SOiO-11" value="ログイン" style="text;html=1;strokeColor=none;fillColor=none;align=center;verticalAlign=middle;whiteSpace=wrap;rounded=0;fontSize=18;" vertex="1" parent="ctEzAyNJ82Mr7fy5SOiO-1">
          <mxGeometry x="566" y="130" width="84" height="20" as="geometry" />
        </mxCell>
        <mxCell id="ctEzAyNJ82Mr7fy5SOiO-12" value="新規登録" style="text;html=1;strokeColor=none;fillColor=none;align=center;verticalAlign=middle;whiteSpace=wrap;rounded=0;fontSize=18;" vertex="1" parent="ctEzAyNJ82Mr7fy5SOiO-1">
          <mxGeometry x="699" y="130" width="74" height="20" as="geometry" />
        </mxCell>
        <mxCell id="ctEzAyNJ82Mr7fy5SOiO-17" value="カテゴリ" style="text;html=1;align=center;verticalAlign=middle;resizable=0;points=[];autosize=1;fontSize=18;" vertex="1" parent="ctEzAyNJ82Mr7fy5SOiO-1">
          <mxGeometry x="16" y="210" width="90" height="30" as="geometry" />
        </mxCell>
        <mxCell id="ctEzAyNJ82Mr7fy5SOiO-18" value="学校" style="text;html=1;strokeColor=none;fillColor=none;align=center;verticalAlign=middle;whiteSpace=wrap;rounded=0;fontSize=18;" vertex="1" parent="ctEzAyNJ82Mr7fy5SOiO-1">
          <mxGeometry x="41" y="280" width="40" height="20" as="geometry" />
        </mxCell>
        <mxCell id="ctEzAyNJ82Mr7fy5SOiO-19" value="季節" style="text;html=1;strokeColor=none;fillColor=none;align=center;verticalAlign=middle;whiteSpace=wrap;rounded=0;fontSize=18;" vertex="1" parent="ctEzAyNJ82Mr7fy5SOiO-1">
          <mxGeometry x="41" y="330" width="40" height="20" as="geometry" />
        </mxCell>
        <mxCell id="ctEzAyNJ82Mr7fy5SOiO-21" value="家族" style="text;html=1;strokeColor=none;fillColor=none;align=center;verticalAlign=middle;whiteSpace=wrap;rounded=0;fontSize=18;" vertex="1" parent="ctEzAyNJ82Mr7fy5SOiO-1">
          <mxGeometry x="41" y="380" width="40" height="20" as="geometry" />
        </mxCell>
        <mxCell id="ctEzAyNJ82Mr7fy5SOiO-22" value="生活" style="text;html=1;strokeColor=none;fillColor=none;align=center;verticalAlign=middle;whiteSpace=wrap;rounded=0;fontSize=18;" vertex="1" parent="ctEzAyNJ82Mr7fy5SOiO-1">
          <mxGeometry x="41" y="430" width="40" height="20" as="geometry" />
        </mxCell>
        <mxCell id="ctEzAyNJ82Mr7fy5SOiO-23" value="食事" style="text;html=1;strokeColor=none;fillColor=none;align=center;verticalAlign=middle;whiteSpace=wrap;rounded=0;fontSize=18;" vertex="1" parent="ctEzAyNJ82Mr7fy5SOiO-1">
          <mxGeometry x="41" y="480" width="40" height="20" as="geometry" />
        </mxCell>
        <mxCell id="ctEzAyNJ82Mr7fy5SOiO-24" value="その他" style="text;html=1;strokeColor=none;fillColor=none;align=center;verticalAlign=middle;whiteSpace=wrap;rounded=0;fontSize=18;" vertex="1" parent="ctEzAyNJ82Mr7fy5SOiO-1">
          <mxGeometry x="41" y="530" width="59" height="30" as="geometry" />
        </mxCell>
        <mxCell id="ctEzAyNJ82Mr7fy5SOiO-25" value="ユーザー&lt;br&gt;ランキング" style="text;html=1;strokeColor=none;fillColor=none;align=center;verticalAlign=middle;whiteSpace=wrap;rounded=0;fontSize=18;" vertex="1" parent="ctEzAyNJ82Mr7fy5SOiO-1">
          <mxGeometry x="20" y="620" width="120" height="20" as="geometry" />
        </mxCell>
        <mxCell id="ctEzAyNJ82Mr7fy5SOiO-26" value="1位　俺" style="text;html=1;strokeColor=none;fillColor=none;align=center;verticalAlign=middle;whiteSpace=wrap;rounded=0;fontSize=18;" vertex="1" parent="ctEzAyNJ82Mr7fy5SOiO-1">
          <mxGeometry x="41" y="710" width="79" height="20" as="geometry" />
        </mxCell>
        <mxCell id="ctEzAyNJ82Mr7fy5SOiO-27" value="2位　私" style="text;html=1;strokeColor=none;fillColor=none;align=center;verticalAlign=middle;whiteSpace=wrap;rounded=0;fontSize=18;" vertex="1" parent="ctEzAyNJ82Mr7fy5SOiO-1">
          <mxGeometry x="45.25" y="770" width="69.5" height="20" as="geometry" />
        </mxCell>
        <mxCell id="ctEzAyNJ82Mr7fy5SOiO-28" value="3位　彼" style="text;html=1;strokeColor=none;fillColor=none;align=center;verticalAlign=middle;whiteSpace=wrap;rounded=0;fontSize=18;" vertex="1" parent="ctEzAyNJ82Mr7fy5SOiO-1">
          <mxGeometry x="45.75" y="830" width="69.5" height="20" as="geometry" />
        </mxCell>
        <mxCell id="MCTT5lJKMhQnmLzxT7nn-46" value="" style="verticalLabelPosition=bottom;verticalAlign=top;html=1;shape=mxgraph.basic.corner_round_rect;dx=6;fontSize=18;align=left;" vertex="1" parent="ctEzAyNJ82Mr7fy5SOiO-1">
          <mxGeometry x="220" y="770" width="560" height="170" as="geometry" />
        </mxCell>
        <mxCell id="MCTT5lJKMhQnmLzxT7nn-38" value="&amp;nbsp;3 甲子園ずっと見がち" style="text;html=1;strokeColor=none;fillColor=none;align=left;verticalAlign=middle;whiteSpace=wrap;rounded=0;fontSize=18;" vertex="1" parent="ctEzAyNJ82Mr7fy5SOiO-1">
          <mxGeometry x="236" y="815" width="294" height="20" as="geometry" />
        </mxCell>
        <mxCell id="MCTT5lJKMhQnmLzxT7nn-39" value="いいね数　4&lt;br&gt;by　hironobu" style="text;html=1;strokeColor=none;fillColor=none;align=left;verticalAlign=top;whiteSpace=wrap;rounded=0;fontSize=18;" vertex="1" parent="ctEzAyNJ82Mr7fy5SOiO-1">
          <mxGeometry x="524" y="860" width="214" height="60" as="geometry" />
        </mxCell>
        <mxCell id="MCTT5lJKMhQnmLzxT7nn-47" value="" style="verticalLabelPosition=bottom;verticalAlign=top;html=1;shape=mxgraph.basic.corner_round_rect;dx=6;fontSize=18;align=left;" vertex="1" parent="ctEzAyNJ82Mr7fy5SOiO-1">
          <mxGeometry x="220" y="560" width="560" height="160" as="geometry" />
        </mxCell>
        <mxCell id="ctEzAyNJ82Mr7fy5SOiO-43" value="2 日焼け完全防備のおばさんがいる" style="text;html=1;strokeColor=none;fillColor=none;align=left;verticalAlign=middle;whiteSpace=wrap;rounded=0;fontSize=18;" vertex="1" parent="ctEzAyNJ82Mr7fy5SOiO-1">
          <mxGeometry x="250" y="600" width="294" height="20" as="geometry" />
        </mxCell>
        <mxCell id="MCTT5lJKMhQnmLzxT7nn-9" value="いいね数　4&lt;br&gt;by　hironobu" style="text;html=1;strokeColor=none;fillColor=none;align=left;verticalAlign=top;whiteSpace=wrap;rounded=0;fontSize=18;" vertex="1" parent="ctEzAyNJ82Mr7fy5SOiO-1">
          <mxGeometry x="556" y="650" width="214" height="60" as="geometry" />
        </mxCell>
        <mxCell id="MCTT5lJKMhQnmLzxT7nn-48" value="" style="verticalLabelPosition=bottom;verticalAlign=top;html=1;shape=mxgraph.basic.corner_round_rect;dx=6;fontSize=18;align=left;" vertex="1" parent="ctEzAyNJ82Mr7fy5SOiO-1">
          <mxGeometry x="220" y="350" width="560" height="160" as="geometry" />
        </mxCell>
        <mxCell id="ctEzAyNJ82Mr7fy5SOiO-42" value="1&amp;nbsp; コンビニめちゃ涼しい" style="text;html=1;strokeColor=none;fillColor=none;align=left;verticalAlign=middle;whiteSpace=wrap;rounded=0;fontSize=18;" vertex="1" parent="ctEzAyNJ82Mr7fy5SOiO-1">
          <mxGeometry x="260" y="400" width="204" height="20" as="geometry" />
        </mxCell>
        <mxCell id="MCTT5lJKMhQnmLzxT7nn-4" value="いいね数　4&lt;br&gt;by　hironobu" style="text;html=1;strokeColor=none;fillColor=none;align=left;verticalAlign=top;whiteSpace=wrap;rounded=0;fontSize=18;" vertex="1" parent="ctEzAyNJ82Mr7fy5SOiO-1">
          <mxGeometry x="534" y="440" width="214" height="60" as="geometry" />
        </mxCell>
        <mxCell id="MCTT5lJKMhQnmLzxT7nn-1" value="&lt;font style=&quot;font-size: 22px&quot;&gt;夏あるある&lt;/font&gt;" style="text;html=1;strokeColor=none;fillColor=none;align=left;verticalAlign=middle;whiteSpace=wrap;rounded=0;fontSize=18;" vertex="1" parent="ctEzAyNJ82Mr7fy5SOiO-1">
          <mxGeometry x="220" y="230" width="132" height="20" as="geometry" />
        </mxCell>
        <mxCell id="MCTT5lJKMhQnmLzxT7nn-2" value="2020/12/4&lt;br&gt;投稿数　12" style="text;html=1;strokeColor=none;fillColor=none;align=left;verticalAlign=middle;whiteSpace=wrap;rounded=0;fontSize=18;" vertex="1" parent="ctEzAyNJ82Mr7fy5SOiO-1">
          <mxGeometry x="616" y="240" width="122" height="60" as="geometry" />
        </mxCell>
      </root>
    </mxGraphModel>
  </diagram>
</mxfile>
